<svg width="133" height="40" viewBox="0 0 133 40" fill="none" xmlns="http://www.w3.org/2000/svg">
<mask id="mask0_815_742" style="mask-type:luminance" maskUnits="userSpaceOnUse" x="0" y="0" width="133" height="40">
<path d="M132.633 0H0.351562V40H132.633V0Z" fill="white"/>
</mask>
<g mask="url(#mask0_815_742)">
<mask id="mask1_815_742" style="mask-type:luminance" maskUnits="userSpaceOnUse" x="0" y="0" width="133" height="40">
<path d="M132.64 0.00341797H0.358154V39.9957H132.64V0.00341797Z" fill="white"/>
</mask>
<g mask="url(#mask1_815_742)">
<path fill-rule="evenodd" clip-rule="evenodd" d="M37.2418 0.00341797H4.91239C2.39832 0.00341797 0.358154 1.97279 0.358154 4.39962V35.6072C0.358154 38.034 2.39832 40.0034 4.91239 40.0034H37.2418C39.7559 40.0034 41.7961 38.034 41.7961 35.6072V4.39962C41.788 1.97279 39.7559 0.00341797 37.2418 0.00341797ZM37.2418 26.9621H29.7478C28.1494 26.9621 26.6153 26.3729 25.4827 25.3106C22.9285 22.9226 18.3181 18.6272 16.6072 17.03C16.1815 16.6345 15.6112 16.4097 15.0088 16.4097H9.51481C9.17746 16.4097 8.84814 16.5338 8.60718 16.7586C8.36621 16.9835 8.22967 17.2858 8.22967 17.6115V22.2403C8.22967 22.5582 8.36621 22.8683 8.60718 23.0854C8.84814 23.3103 9.17746 23.4343 9.51481 23.4343H15.0088C15.6112 23.4343 16.1815 23.2095 16.6072 22.814C17.3863 22.0852 18.5831 20.9687 18.5831 20.9687L21.2177 23.4343C21.2177 23.4343 20.1976 24.388 19.2177 25.3029C18.0851 26.3574 16.551 26.9544 14.9526 26.9544H9.60317C8.2377 26.9544 6.92846 26.4504 5.9646 25.551C5.00074 24.6516 4.45455 23.4266 4.45455 22.155V17.6968C4.45455 16.4252 5.00074 15.2002 5.9646 14.3008C6.92846 13.4014 8.2377 12.8974 9.60317 12.8974H14.9526C16.551 12.8974 18.0851 13.4867 19.2177 14.5411C21.7719 16.9292 26.3823 21.2323 28.0932 22.8218C28.5189 23.2172 29.0892 23.4421 29.6916 23.4421H37.2418V26.9621ZM37.2418 16.4097H29.6916C29.0892 16.4097 28.5189 16.6345 28.0932 17.03C27.3141 17.7588 26.1173 18.8753 26.1173 18.8753L23.4827 16.4097C23.4827 16.4097 24.5028 15.456 25.4827 14.5411C26.6153 13.4867 28.1494 12.8974 29.7478 12.8974H37.2418V16.4097Z" fill="white" fill-opacity="0.5"/>
<path fill-rule="evenodd" clip-rule="evenodd" d="M108.354 17.015C107.8 16.4801 107.045 16.1777 106.258 16.1777H100.908C100.121 16.1777 99.366 16.4801 98.8118 17.015C98.2576 17.5499 97.9443 18.2785 97.9443 19.0382V21.6895C97.9443 22.4492 98.2576 23.1701 98.8118 23.7127C99.366 24.2554 100.121 24.55 100.908 24.55H106.258C107.045 24.55 107.8 24.2476 108.354 23.7127C108.908 23.1779 109.221 22.4492 109.221 21.6895V19.0382C109.221 18.2785 108.908 17.5499 108.354 17.015ZM107.053 21.7437C107.053 21.9298 106.972 22.1158 106.836 22.2476C106.699 22.3794 106.507 22.4569 106.314 22.4569H100.86C100.667 22.4569 100.474 22.3794 100.338 22.2476C100.201 22.1158 100.121 21.9298 100.121 21.7437V18.9917C100.121 18.8057 100.201 18.6196 100.338 18.4879C100.474 18.3561 100.667 18.2785 100.86 18.2785H106.314C106.515 18.2785 106.699 18.3561 106.836 18.4879C106.972 18.6196 107.053 18.8057 107.053 18.9917V21.7437Z" fill="white" fill-opacity="0.5"/>
<path fill-rule="evenodd" clip-rule="evenodd" d="M121.357 17.0154C120.803 16.4806 120.048 16.1782 119.261 16.1782H113.911C113.124 16.1782 112.369 16.4806 111.815 17.0154C111.261 17.5503 110.948 18.279 110.948 19.0387V21.6899C110.948 22.4496 111.261 23.1706 111.815 23.7132C112.369 24.2481 113.124 24.5505 113.911 24.5505H119.261C120.048 24.5505 120.803 24.2481 121.357 23.7132C121.911 23.1783 122.225 22.4496 122.225 21.6899V19.0387C122.225 18.279 121.911 17.5503 121.357 17.0154ZM120.056 21.7442C120.056 21.9303 119.976 22.1163 119.839 22.2481C119.703 22.3799 119.51 22.4574 119.317 22.4574H113.863C113.67 22.4574 113.478 22.3799 113.341 22.2481C113.205 22.1163 113.124 21.9303 113.124 21.7442V18.9922C113.124 18.8062 113.205 18.6201 113.341 18.4883C113.478 18.3566 113.67 18.279 113.863 18.279H119.317C119.518 18.279 119.703 18.3566 119.839 18.4883C119.976 18.6201 120.056 18.8062 120.056 18.9922V21.7442Z" fill="white" fill-opacity="0.5"/>
<path fill-rule="evenodd" clip-rule="evenodd" d="M126.865 22.4447C126.673 22.4447 126.48 22.3672 126.343 22.2354C126.207 22.1036 126.126 21.9176 126.126 21.7315V16.1655H123.958V21.6772C123.958 22.437 124.271 23.1656 124.825 23.7005C125.379 24.2354 126.134 24.5378 126.922 24.5378H132.632V22.4447H126.865Z" fill="white" fill-opacity="0.5"/>
<path fill-rule="evenodd" clip-rule="evenodd" d="M96.2141 22.4447H90.214C90.0213 22.4447 89.8285 22.3672 89.6919 22.2354C89.5554 22.1036 89.4751 21.9176 89.4751 21.7315V18.9718C89.4751 18.7857 89.5554 18.5997 89.6919 18.4679C89.8285 18.3361 90.0213 18.2586 90.214 18.2586H96.2141V16.1655H90.2703C89.4831 16.1655 88.7361 16.4679 88.1739 17.0028C87.6196 17.5376 87.3064 18.2663 87.3064 19.026V21.6772C87.3064 22.437 87.6196 23.1656 88.1739 23.7005C88.7281 24.2354 89.4831 24.5378 90.2703 24.5378H96.2141V22.4447Z" fill="white" fill-opacity="0.5"/>
<path d="M52.2959 24.5392H51.4044C50.6172 24.5392 49.9907 24.3221 49.5409 23.8958C49.0911 23.4616 48.8662 22.8647 48.8662 22.0895V18.5468C48.8662 17.7716 49.0911 17.1747 49.5409 16.7406C49.9907 16.3065 50.6172 16.0972 51.4044 16.0972H55.1313C55.2919 16.0972 55.3723 16.1747 55.3723 16.3297V24.3144C55.3723 24.4694 55.2919 24.5469 55.1313 24.5469H54.3602C54.1996 24.5469 54.1192 24.4694 54.1192 24.3144V23.6709H54.0469C53.7578 24.2601 53.1795 24.5469 52.2959 24.5469M54.1192 21.9655V17.3142C54.1192 17.2135 54.063 17.167 53.9506 17.167H51.549C50.6012 17.167 50.1273 17.6476 50.1273 18.6088V22.0508C50.1273 23.012 50.6012 23.4926 51.549 23.4926H52.5289C53.0429 23.4926 53.4365 23.3609 53.7096 23.0973C53.9827 22.8337 54.1192 22.4539 54.1192 21.9732" fill="white" fill-opacity="0.5"/>
<path d="M58.8331 24.5402H58.062C57.9014 24.5402 57.821 24.4627 57.821 24.3076V13.1271C57.821 12.9721 57.9014 12.8945 58.062 12.8945H58.8331C58.9937 12.8945 59.0741 12.9721 59.0741 13.1271V24.3076C59.0741 24.4627 58.9937 24.5402 58.8331 24.5402Z" fill="white" fill-opacity="0.5"/>
<path d="M62.5457 26.9611H61.7747C61.614 26.9611 61.5337 26.8836 61.5337 26.7285V16.3234C61.5337 16.1684 61.614 16.0908 61.7747 16.0908H62.5457C62.7064 16.0908 62.7867 16.1684 62.7867 16.3234V16.967H62.859C63.1482 16.3777 63.7265 16.0908 64.61 16.0908H65.6381C66.4172 16.0908 67.0197 16.3079 67.4454 16.7344C67.8791 17.1685 68.0879 17.7656 68.0879 18.5409V22.0842C68.0879 22.8596 67.8711 23.4566 67.4454 23.8908C67.0197 24.3172 66.4172 24.5343 65.6381 24.5343H64.61C63.7265 24.5343 63.1482 24.2397 62.859 23.6582H62.7867V26.7208C62.7867 26.8759 62.7064 26.9534 62.5457 26.9534M64.3851 23.4721H65.3972C66.3691 23.4721 66.859 22.9914 66.859 22.03V18.5874C66.859 17.626 66.3691 17.1453 65.3972 17.1453H64.3851C63.8711 17.1453 63.4775 17.2771 63.1963 17.5407C62.9233 17.8043 62.7867 18.1842 62.7867 18.665V21.9447C62.7867 22.4331 62.9233 22.8053 63.1963 23.0689C63.4694 23.3325 63.863 23.4643 64.3851 23.4643" fill="white" fill-opacity="0.5"/>
<path d="M71.2923 24.5402H70.5212C70.3606 24.5402 70.2803 24.4627 70.2803 24.3076V13.1271C70.2803 12.9721 70.3606 12.8945 70.5212 12.8945H71.2923C71.453 12.8945 71.5333 12.9721 71.5333 13.1271V16.9728H71.5975C71.8867 16.3836 72.465 16.0967 73.3486 16.0967H74.3124C75.0915 16.0967 75.6939 16.3138 76.1277 16.7402C76.5614 17.1744 76.7783 17.7714 76.7783 18.5468V24.3153C76.7783 24.4704 76.698 24.548 76.5373 24.548H75.7662C75.6056 24.548 75.5253 24.4704 75.5253 24.3153V18.6011C75.5253 17.6396 75.0433 17.1589 74.0795 17.1589H73.1156C72.6016 17.1589 72.208 17.2907 71.9349 17.5543C71.6618 17.818 71.5253 18.1979 71.5253 18.6786V24.3153C71.5253 24.4704 71.4449 24.548 71.2843 24.548" fill="white" fill-opacity="0.5"/>
<path d="M82.333 24.5392H81.4415C80.6543 24.5392 80.0278 24.3221 79.578 23.8958C79.1282 23.4616 78.9033 22.8647 78.9033 22.0895V18.5468C78.9033 17.7716 79.1282 17.1747 79.578 16.7406C80.0278 16.3065 80.6543 16.0972 81.4415 16.0972H85.1684C85.329 16.0972 85.4094 16.1747 85.4094 16.3297V24.3144C85.4094 24.4694 85.329 24.5469 85.1684 24.5469H84.3973C84.2367 24.5469 84.1564 24.4694 84.1564 24.3144V23.6709H84.0841C83.7949 24.2601 83.2166 24.5469 82.333 24.5469M84.1564 21.9655V17.3142C84.1564 17.2135 84.1001 17.167 83.9877 17.167H81.5861C80.6383 17.167 80.1644 17.6476 80.1644 18.6088V22.0508C80.1644 23.012 80.6383 23.4926 81.5861 23.4926H82.566C83.08 23.4926 83.4736 23.3609 83.7467 23.0973C84.0198 22.8337 84.1564 22.4539 84.1564 21.9732" fill="white" fill-opacity="0.5"/>
</g>
</g>
</svg>
