<svg width="195" height="40" viewBox="0 0 195 40" fill="none" xmlns="http://www.w3.org/2000/svg">
<g clip-path="url(#clip0_815_714)">
<path d="M183.708 33.4523C181.47 33.4523 179.566 33.077 177.995 32.3265C176.424 31.5759 175.207 30.4918 174.342 29.0741C173.476 27.6564 173.008 25.9593 172.935 23.9912C172.909 22.9822 172.9 22.4026 172.9 21.2434C172.9 20.0842 172.913 18.4789 172.935 17.449C173.008 15.5017 173.476 13.838 174.342 12.4536C175.207 11.0693 176.437 10.0019 178.029 9.25131C179.622 8.50076 181.514 8.12549 183.708 8.12549C185.483 8.12549 187.041 8.35482 188.383 8.81349C189.72 9.27216 190.833 9.85592 191.725 10.5731C192.612 11.2903 193.283 12.0575 193.733 12.879C194.183 13.7004 194.421 14.4634 194.443 15.164C194.464 15.3766 194.408 15.5517 194.261 15.6935C194.114 15.8353 193.919 15.9062 193.677 15.9062H189.915C189.673 15.9062 189.487 15.8603 189.37 15.7644C189.249 15.6727 189.136 15.5309 189.041 15.3433C188.846 14.8512 188.543 14.3634 188.128 13.8839C187.712 13.4043 187.154 12.9999 186.448 12.6705C185.743 12.3411 184.829 12.1784 183.708 12.1784C182.055 12.1784 180.73 12.5996 179.748 13.446C178.761 14.2883 178.233 15.6852 178.159 17.6324C178.068 20.1759 178.103 22.24 178.159 23.8244C178.233 25.8176 178.774 27.2478 179.782 28.1151C180.791 28.9824 182.124 29.416 183.782 29.416C184.877 29.416 185.855 29.2284 186.721 28.8531C187.587 28.4778 188.266 27.8899 188.764 27.0935C189.262 26.2971 189.513 25.2755 189.513 24.0329V23.7994H185.059C184.816 23.7994 184.609 23.716 184.44 23.5534C184.271 23.3908 184.184 23.1781 184.184 22.9196V20.7055C184.184 20.447 184.271 20.2385 184.44 20.0717C184.609 19.9091 184.816 19.8257 185.059 19.8257H193.785C194.053 19.8257 194.265 19.9091 194.426 20.0717C194.586 20.2343 194.664 20.447 194.664 21.0558V24.2414C194.664 25.8593 194.218 27.5605 193.33 28.9907C192.443 30.4209 191.175 31.5217 189.534 32.2973C187.89 33.0729 185.95 33.4565 183.708 33.4565M159.491 32.2973C161.135 31.5217 162.399 30.4209 163.287 28.9907C164.174 27.5605 164.62 26.2095 164.62 24.2414V20.7055C164.62 20.447 164.542 20.2385 164.382 20.0717C164.222 19.9091 164.01 19.8257 163.741 19.8257H155.015C154.773 19.8257 154.565 19.9091 154.396 20.0717C154.227 20.2343 154.141 20.447 154.141 20.7055V22.9196C154.141 23.1781 154.227 23.3908 154.396 23.5534C154.565 23.7202 154.773 23.7994 155.015 23.7994H159.469V24.3832C159.469 25.6258 159.218 26.2971 158.72 27.0935C158.222 27.8899 157.539 28.4778 156.677 28.8531C155.812 29.2284 154.833 29.416 153.738 29.416C152.08 29.416 150.752 28.9824 149.739 28.1151C148.73 27.2478 148.185 25.8176 148.116 23.8244C148.042 21.7354 148.042 19.6714 148.116 17.6324C148.189 15.6852 148.717 14.2925 149.704 13.446C150.691 12.6038 152.011 12.1784 153.665 12.1784C154.786 12.1784 155.699 12.3452 156.405 12.6705C157.11 12.9999 157.668 13.4043 158.084 13.8839C158.499 14.3634 158.802 14.8512 158.997 15.3433C159.092 15.5309 159.205 15.6727 159.326 15.7644C159.447 15.8561 159.629 15.9062 159.872 15.9062H163.633C163.875 15.9062 164.07 15.8353 164.217 15.6935C164.364 15.5517 164.425 15.3766 164.399 15.164C164.373 14.4593 164.135 13.7004 163.689 12.879C163.239 12.0575 162.568 11.2903 161.681 10.5731C160.794 9.86009 159.677 9.27216 158.339 8.81349C157.002 8.35482 155.444 8.12549 153.665 8.12549C151.474 8.12549 149.583 8.50076 147.986 9.25131C146.393 10.0019 145.159 11.0693 144.298 12.4536C143.432 13.838 142.965 15.5017 142.891 17.449C142.865 18.4789 142.856 19.5755 142.856 20.7389C142.856 21.9022 142.869 22.9863 142.891 23.9912C142.965 25.9593 143.432 27.6564 144.298 29.0741C145.164 30.4918 146.38 31.5801 147.951 32.3265C149.522 33.077 151.427 33.4523 153.665 33.4523C155.902 33.4523 157.846 33.0645 159.491 32.2931M127.988 23.8161H119.916L123.937 13.2292L127.988 23.8161ZM136.061 32.364C136.061 32.2723 136.048 32.1639 136.026 32.0471L127.227 9.35972C127.131 9.12622 126.984 8.9219 126.789 8.7426C126.595 8.56748 126.313 8.47991 125.95 8.47991H121.972C121.608 8.47991 121.318 8.56748 121.115 8.7426C120.907 8.91773 120.768 9.12622 120.695 9.35972L111.895 32.0471C111.848 32.1639 111.822 32.2723 111.822 32.364C111.822 32.5767 111.9 32.7518 112.06 32.8936C112.22 33.0353 112.393 33.1062 112.588 33.1062H115.765C116.107 33.1062 116.353 33.0312 116.514 32.8769C116.669 32.7226 116.773 32.5767 116.825 32.4349L118.648 27.8607H129.274L131.1 32.4349C131.148 32.5767 131.252 32.7226 131.412 32.8769C131.568 33.0312 131.819 33.1062 132.161 33.1062H135.338C135.533 33.1062 135.702 33.0353 135.849 32.8936C135.996 32.7518 136.07 32.5767 136.07 32.364M97.1742 13.3877C96.4556 12.7205 95.3432 12.3869 93.8326 12.3869H88.6861V19.8465H93.8326C95.3173 19.8465 96.4253 19.5255 97.1568 18.8792C97.8883 18.2329 98.2519 17.3239 98.2519 16.1522C98.2519 14.9805 97.8927 14.059 97.1742 13.3918M104.022 32.3682C104.022 32.5808 103.944 32.756 103.784 32.8977C103.624 33.0395 103.45 33.1104 103.256 33.1104H99.9314C99.5158 33.1104 99.1999 33.0061 98.9834 32.7935C98.7627 32.5808 98.5939 32.3723 98.4727 32.1597L93.7633 23.8244H88.6861V32.2681C88.6861 32.5016 88.6082 32.7017 88.448 32.8644C88.2879 33.0312 88.0758 33.1104 87.8074 33.1104H84.4832C84.2408 33.1104 84.033 33.027 83.8642 32.8644C83.6954 32.7017 83.6088 32.5016 83.6088 32.2681V9.35972C83.6088 9.1012 83.6954 8.89271 83.8642 8.72593C84.033 8.56331 84.2408 8.47991 84.4832 8.47991H93.9408C96.8842 8.47991 99.2129 9.13456 100.914 10.448C102.619 11.7615 103.468 13.6712 103.468 16.1814C103.468 17.916 103.022 19.3587 102.135 20.5095C101.247 21.6604 100.057 22.4901 98.5766 23.0072L103.909 31.9762C103.983 32.118 104.017 32.2473 104.017 32.364M68.4074 25.8217C68.4074 26.8058 68.0654 27.6439 67.3858 28.3361C66.702 29.0282 65.7064 29.3743 64.3906 29.3743H58.2918V22.2358H64.3906C65.6804 22.2358 66.6717 22.5777 67.3685 23.2574C68.0611 23.937 68.4074 24.7918 68.4074 25.8259M67.8966 15.3433C67.8966 16.3065 67.572 17.0862 66.927 17.6825C66.2821 18.2787 65.3125 18.5789 64.0227 18.5789H58.2918V12.2118H64.0227C65.3125 12.2118 66.2821 12.487 66.927 13.0374C67.572 13.5878 67.8966 14.355 67.8966 15.3391M72.6622 17.574C72.9912 16.9069 73.1557 16.1272 73.1557 15.2348C73.1557 13.8964 72.857 12.7247 72.2597 11.7156C71.6623 10.7065 70.7447 9.91429 69.5025 9.33887C68.2602 8.76345 66.6543 8.47574 64.6806 8.47574H54.0932C53.8508 8.47574 53.6431 8.55914 53.4742 8.72176C53.3054 8.88855 53.2189 9.09703 53.2189 9.35555V32.2556C53.2189 32.4891 53.3054 32.6892 53.4742 32.8519C53.6431 33.0186 53.8508 33.0979 54.0932 33.0979H64.9749C66.8751 33.0979 68.468 32.7851 69.7578 32.1639C71.0477 31.5426 72.0216 30.6794 72.6795 29.5786C73.3375 28.4778 73.6664 27.2228 73.6664 25.8134C73.6664 24.404 73.3028 23.2824 72.5713 22.2942C71.8398 21.3101 71.0001 20.6054 70.0522 20.1843C70.5153 19.9508 70.9828 19.6214 71.4589 19.2002C71.935 18.7791 72.3333 18.2329 72.6622 17.5657" fill="white" fill-opacity="0.5"/>
<path d="M30.1097 20.0021H27.1621V17.2709H30.0881C31.7329 17.2709 31.6117 20.0021 30.1097 20.0021ZM30.2093 21.6658H27.1621V24.7264H30.2093C32.0099 24.7264 32.0099 21.6658 30.2093 21.6658ZM40.0695 25.3185C40.0695 26.2275 39.6453 27.0864 38.9181 27.6618L30.3564 34.4209C29.7764 34.8796 28.9454 34.8796 28.3654 34.4209L21.9982 29.4089V32.703C21.9982 33.341 22.2926 33.9414 22.8033 34.3459L26.5604 37.3105C27.7031 38.2112 27.0409 39.9958 25.5649 39.9958H15.1117C13.6357 39.9958 12.9734 38.2112 14.1161 37.3105L17.9079 34.3167C18.4186 33.9122 18.7129 33.3118 18.7129 32.678V29.3631L12.3025 34.4251C11.7225 34.8838 10.8871 34.8838 10.3071 34.4251L1.78442 27.6952C1.05724 27.1198 0.633057 26.2608 0.633057 25.3518V16.2077C0.633057 15.5739 0.927391 14.9692 1.43815 14.569L19.5354 0.275201C19.9985 -0.0917336 20.6651 -0.0917336 21.1282 0.275201L39.2557 14.5815C39.7665 14.9859 40.0608 15.5864 40.0608 16.2202V25.3185H40.0695ZM18.7129 21.2363L8.73589 29.1171L10.9088 30.835C11.1425 31.0185 11.4758 31.0185 11.7052 30.835L18.3667 25.577C18.5874 25.406 18.7129 25.1475 18.7129 24.8723V21.2363ZM18.7129 13.1137L4.08715 24.6596C3.82744 24.864 3.82744 25.2476 4.08715 25.4519L6.15615 27.0864L18.358 17.4544C18.5788 17.2834 18.7043 17.0249 18.7043 16.7497V13.1137H18.7129ZM18.7129 4.98697L4.23865 16.4161C4.02222 16.5871 3.89237 16.8456 3.89237 17.1208V20.7526L18.3623 9.32347C18.5831 9.15251 18.7086 8.89399 18.7086 8.61878V4.98697H18.7129ZM32.2783 20.7443C34.2823 19.8478 34.2823 15.6489 30.2136 15.6489H24.9632V26.3484H30.2136C34.5507 26.3484 34.7628 21.8326 32.2783 20.7401V20.7443Z" fill="white" fill-opacity="0.5"/>
</g>
<defs>
<clipPath id="clip0_815_714">
<rect x="0.633057" width="194.035" height="40" rx="4" fill="white"/>
</clipPath>
</defs>
</svg>
