<svg width="78" height="40" viewBox="0 0 78 40" fill="none" xmlns="http://www.w3.org/2000/svg">
<path fill-rule="evenodd" clip-rule="evenodd" d="M0.119263 20C0.119263 31.025 9.41689 40 20.8382 40C32.2725 40 41.5572 31.025 41.5572 20C41.5572 8.975 32.2595 0 20.8382 0C9.41689 0 0.119263 8.975 0.119263 20ZM20.7213 11.1757C21.1616 11.1757 21.304 11.4632 21.058 11.8132L19.1415 14.4007C18.8825 14.7507 18.3386 15.0382 17.8984 15.0382H12.3172C11.8769 15.0382 11.7345 14.7507 11.9805 14.4007L13.897 11.8132C14.143 11.4632 14.6999 11.1757 15.1401 11.1757H20.7213ZM20.7472 28.7257C21.1616 28.7257 21.317 28.4382 21.0709 28.0882L19.1674 25.5007C18.9214 25.1507 18.3645 24.8632 17.9243 24.8632H12.3431C11.9028 24.8632 11.7604 25.1507 12.0064 25.5007L13.9229 28.0882C14.1819 28.4382 14.7387 28.7257 15.166 28.7257H20.7472ZM29.488 11.1757C29.9154 11.1757 30.0707 11.4507 29.8118 11.7882L24.1917 19.3382C23.9328 19.6882 23.9328 20.2382 24.1917 20.5757L29.7988 28.1132C30.0578 28.4382 29.9024 28.7257 29.4751 28.7257H26.1212C25.6809 28.7257 25.1241 28.4382 24.8781 28.1007L20.6825 22.4507C20.4235 22.1007 19.8796 21.8757 19.4393 21.8757H12.5373C12.097 21.8757 11.7474 21.5882 11.7474 21.1757V18.7132C11.7474 18.2882 12.11 18.0132 12.5373 18.0132H19.4523C19.8926 18.0132 20.4364 17.7757 20.6954 17.4382L24.891 11.7882C25.137 11.4507 25.7068 11.1632 26.1341 11.1632L29.488 11.1757Z" fill="white" fill-opacity="0.5"/>
<path d="M52.3854 19.9331C52.6307 19.9331 52.7081 19.734 52.7081 19.5971V19.4726C52.7081 19.2362 52.6694 18.5268 52.1789 17.9543C51.6367 17.3196 50.8492 17.3071 50.178 17.3071C49.4035 17.3071 48.5644 17.3445 48.0222 18.2032C47.7124 18.701 47.6737 19.2237 47.6608 19.9456H52.3854V19.9331ZM49.5196 24.0774C48.8742 24.0774 48.0997 23.9405 47.4671 23.1689C46.8733 22.4222 46.8346 21.5137 46.8346 20.406C46.8346 19.3482 46.8991 18.1036 47.8673 17.3071C48.5644 16.7471 49.5196 16.6475 50.2942 16.6475C50.8363 16.6475 51.6367 16.7222 52.2692 17.0707C52.9534 17.4689 53.5085 18.2405 53.5085 19.4477C53.5085 19.7464 53.4697 20.1571 53.1857 20.3936C52.9534 20.6052 52.5919 20.6176 52.3725 20.6176H47.6479C47.6349 21.0532 47.6608 21.7501 47.7769 22.1484C47.9448 22.7582 48.5127 23.4427 49.5067 23.4427H53.3148V24.1023H49.5196V24.0774ZM59.7693 24.0774L56.6324 21.2897C56.3871 21.0781 56.0515 20.6549 56.0515 20.2194C56.0515 19.7838 56.3484 19.4353 56.6453 19.1491L59.4594 16.6102H60.4792L57.11 19.6469C56.981 19.7589 56.839 19.9456 56.839 20.182C56.839 20.4807 57.0842 20.7296 57.2649 20.8914L60.8407 24.0774H59.7693ZM54.6961 24.0774H55.4577V14.1958H54.6961V24.0774ZM63.0352 23.1565C63.0739 23.256 63.1256 23.3805 63.1901 23.3805C63.2934 23.3805 63.3192 23.2062 63.3321 23.1689L64.9844 17.1453C65.1523 16.6226 65.4492 16.5231 65.6815 16.5231C65.9139 16.5231 66.2237 16.6226 66.3786 17.1453L68.0309 23.1689C68.0438 23.2062 68.0697 23.3805 68.1729 23.3805C68.2375 23.3805 68.2891 23.256 68.3278 23.1565L70.0705 16.6226H70.8321L68.9345 23.5423C68.8313 23.8658 68.6764 24.1645 68.1858 24.1645C67.6308 24.1645 67.4371 23.7414 67.3984 23.5298L65.7848 17.6929C65.7719 17.5934 65.7202 17.4316 65.6686 17.4316C65.617 17.4316 65.5653 17.5809 65.5524 17.6929L63.9388 23.5298C63.8614 23.7414 63.7323 24.1645 63.1514 24.1645C62.6738 24.1645 62.5059 23.8658 62.4027 23.5423L60.5051 16.6226H61.2667L63.0352 23.1565ZM72.2134 22.8329C72.2134 22.9947 72.2005 23.1689 72.3038 23.2809C72.407 23.3929 72.6265 23.4054 72.7556 23.4054H74.5241C75.1179 23.4054 76.1506 23.368 76.6928 22.4222C77.0284 21.8746 77.0284 21.215 77.0284 20.6425C77.0284 19.1491 76.8089 18.5392 76.7057 18.3277C76.2668 17.3694 75.3115 17.2574 74.5886 17.2574H72.2134V22.8329ZM73.0137 24.0774C72.5619 24.0774 72.0972 24.065 71.8132 23.8534C71.4776 23.592 71.4518 23.1813 71.4518 22.9075V14.2082H72.2134V16.6102H74.6403C75.4406 16.6102 76.6411 16.772 77.2995 17.8423C77.7255 18.5392 77.8158 19.4726 77.8158 20.4558C77.8158 21.3394 77.7255 22.1857 77.3124 22.8702C76.654 23.9405 75.5051 24.1023 74.679 24.1023H73.0137V24.0774Z" fill="white" fill-opacity="0.5"/>
</svg>
