<svg width="67" height="40" viewBox="0 0 67 40" fill="none" xmlns="http://www.w3.org/2000/svg">
<path d="M26.4462 7.21444H31.6484V10.1891C32.0196 9.76643 32.3236 9.38783 32.6616 9.0431C33.8849 7.79419 35.3285 6.97197 37.0688 6.74373C39.7923 6.38612 42.0795 7.8179 42.8738 9.92763C43.0447 10.3828 43.1625 10.89 43.1645 11.3743C43.1871 15.5965 43.1771 19.8186 43.1771 24.0408C43.1771 24.1079 43.1705 24.1756 43.1658 24.2704H37.9962C37.9895 24.1282 37.9769 23.9866 37.9769 23.8444C37.9755 20.6835 37.9782 17.5227 37.9742 14.3611C37.9735 13.6459 37.8811 12.9456 37.5964 12.2812C36.7515 10.3089 34.3772 9.77795 32.8971 11.2639C32.007 12.1572 31.6617 13.3066 31.6577 14.5589C31.6484 17.652 31.655 20.7452 31.655 23.839V24.2704H26.4462V7.21444Z" fill="white" fill-opacity="0.5"/>
<path d="M54.62 24.9295C51.8426 24.8265 49.0319 23.4516 47.1227 20.4554C44.9466 17.0412 45.4489 12.5562 48.2622 9.65814C50.0631 7.80307 52.2504 6.79528 54.8043 6.69165C58.3274 6.54875 61.2192 7.86199 63.3001 10.796C65.6937 14.1702 65.3265 18.817 62.4945 21.8336C60.5919 23.86 58.1072 24.9301 54.6207 24.9295H54.62ZM59.121 15.7469C59.1051 15.7462 59.0891 15.7455 59.0725 15.7442C59.0725 15.0784 59.0911 14.412 59.0692 13.7469C59.0133 12.076 58.342 10.7174 56.9943 9.74822C56.0622 9.07771 55.0564 8.98763 54.0585 9.59448C52.6682 10.4397 51.8818 11.7252 51.7741 13.3493C51.6763 14.8211 51.7022 16.3043 51.7368 17.7814C51.7707 19.239 52.3608 20.4669 53.4465 21.4245C54.6399 22.4777 56.0117 22.5156 57.2291 21.5295C58.1471 20.7865 58.7718 19.8214 58.9487 18.6457C59.0918 17.6927 59.0698 16.7147 59.121 15.7476V15.7469Z" fill="white" fill-opacity="0.5"/>
<path d="M4.78498 10.4256H2.23975V7.20783H4.77699C4.77699 6.59556 4.74639 6.03207 4.78498 5.47263C4.82888 4.83531 4.85017 4.17632 5.02846 3.5715C5.6152 1.5803 6.99093 0.466171 8.98534 0.144463C9.57275 0.0496436 10.1748 0.0178114 10.7709 0.0103613C12.1991 -0.00860252 13.6274 0.00426581 15.079 0.00426581V3.64939H14.7384C13.6853 3.64939 12.6322 3.64804 11.5791 3.64939C10.6771 3.65075 10.0497 4.28265 10.0464 5.19495C10.0437 5.84717 10.0464 6.49939 10.0464 7.19767H14.0938V10.4148H10.0557V24.2949H4.78498V10.4249V10.4256Z" fill="white" fill-opacity="0.5"/>
<path d="M17.7345 7.2124H22.8948V24.2711H17.7345V7.2124Z" fill="white" fill-opacity="0.5"/>
<path d="M66.2702 29.5559C44.4521 30.3 22.634 30.2932 0.815918 29.5559C22.634 28.8132 44.4521 28.8071 66.2702 29.5559Z" fill="white" fill-opacity="0.5"/>
<path d="M22.9003 0.0229492V3.62891H17.7286V0.0229492H22.9003Z" fill="white" fill-opacity="0.5"/>
<path d="M22.9439 37.7961V34.8409H24.0097V39.8987C23.7402 39.8987 23.4761 39.9169 23.2167 39.8892C23.1182 39.879 23.0085 39.7815 22.942 39.6935C22.2434 38.7752 21.5529 37.8516 20.8591 36.93C20.8158 36.8724 20.7639 36.8216 20.6661 36.7099V39.8722H19.6024V34.8159C19.9084 34.8159 20.2071 34.7949 20.4998 34.8267C20.6056 34.8382 20.7174 34.9608 20.7925 35.0603C21.4279 35.9 22.0552 36.7458 22.6852 37.5889C22.7444 37.6681 22.8082 37.7432 22.8701 37.8198C22.8947 37.8116 22.92 37.8042 22.9446 37.7961H22.9439Z" fill="white" fill-opacity="0.5"/>
<path d="M35.0066 34.8384V35.8142H32.359V36.838H34.696V37.8409H32.3556V38.8898H35.0439V39.8805H31.2899V34.8384H35.006H35.0066Z" fill="white" fill-opacity="0.5"/>
<path d="M42.2324 39.3706C42.41 39.1072 42.5897 38.839 42.7852 38.5485C43.2828 38.8911 43.7991 39.16 44.3858 38.8315C44.7204 38.644 44.8409 38.3054 44.8788 37.9919C44.4543 38.0454 44.0359 38.1517 43.6215 38.1388C42.8405 38.1144 42.2757 37.6174 42.1393 36.9226C41.975 36.0863 42.3149 35.3001 43.0207 34.9521C44.1556 34.3921 45.7842 34.7327 46.0037 36.4662C46.1161 37.3513 46.0809 38.216 45.6345 39.0259C44.9007 40.3579 42.9196 40.1601 42.2324 39.3712V39.3706ZM44.0572 35.6807C43.5503 35.6787 43.191 35.999 43.1924 36.4506C43.1944 36.901 43.5496 37.2253 44.0525 37.2348C44.5634 37.2443 44.92 36.9355 44.9233 36.4798C44.9267 35.9936 44.5894 35.6827 44.0572 35.6807Z" fill="white" fill-opacity="0.5"/>
<path d="M11.5087 39.1648C11.7315 38.8939 11.9358 38.6454 12.0967 38.4504C12.5711 38.6339 13.0081 38.8032 13.4452 38.9711C13.4758 38.9826 13.5104 38.9854 13.543 38.9887C13.9814 39.0307 14.332 38.8499 14.3812 38.5574C14.4258 38.2926 14.2568 38.1233 13.7745 37.9635C13.3647 37.8281 12.9456 37.7184 12.5431 37.5647C12.0449 37.3744 11.7575 37.0013 11.7202 36.4453C11.6796 35.8338 11.8666 35.3348 12.3981 35.007C13.207 34.5073 14.5828 34.6888 15.3199 35.4005C15.1416 35.6639 14.9613 35.93 14.8016 36.1657C14.4078 36.018 14.0413 35.8765 13.6714 35.7451C13.5902 35.7167 13.4951 35.7106 13.4086 35.7194C13.1485 35.7451 12.8797 35.7912 12.8225 36.1101C12.7627 36.4419 13.0048 36.5686 13.2549 36.6532C13.6328 36.7805 14.022 36.8753 14.3978 37.008C15.2021 37.2911 15.558 37.801 15.4848 38.533C15.4083 39.2996 14.9021 39.8359 14.1051 39.9442C13.1485 40.0742 12.285 39.8365 11.5087 39.1641V39.1648Z" fill="white" fill-opacity="0.5"/>
<path d="M52.3252 34.8315H55.3641V35.787H53.2532C53.2353 36.0884 53.2193 36.3436 53.2027 36.6253C53.4668 36.6111 53.7156 36.5847 53.9631 36.5867C54.9237 36.5949 55.4951 37.1054 55.6036 38.0413C55.7073 38.9365 55.2037 39.7152 54.3323 39.913C53.4056 40.1229 52.5527 39.9549 51.8263 39.2297C52.0412 38.9643 52.2501 38.7063 52.4643 38.4415C52.6758 38.5735 52.8647 38.7462 53.0856 38.8166C53.3623 38.9047 53.667 38.9521 53.9557 38.9379C54.2804 38.9216 54.4953 38.6426 54.5172 38.325C54.5412 37.9824 54.3662 37.6777 54.0209 37.6316C53.6903 37.5869 53.3391 37.6154 53.0091 37.6777C52.6253 37.7501 52.1589 37.4291 52.1782 37.0391C52.2121 36.364 52.2574 35.6895 52.2993 35.0151C52.3026 34.9609 52.3146 34.9067 52.3252 34.8322V34.8315Z" fill="white" fill-opacity="0.5"/>
<path d="M29.9571 35.529C29.7269 35.7958 29.5087 36.0484 29.2666 36.3281C28.8242 35.9157 28.3179 35.6394 27.7299 35.7891C27.4272 35.8656 27.1079 36.0599 26.899 36.2956C26.3614 36.9016 26.4227 37.9235 26.9721 38.5248C27.5316 39.137 28.292 39.0956 29.3098 38.3927C29.5307 38.6189 29.7535 38.8471 29.9751 39.0747C29.2087 40.1568 27.3314 40.3206 26.2756 39.4044C25.1294 38.4097 25.0622 36.5326 26.1339 35.4552C27.1438 34.4395 29.0584 34.4639 29.9564 35.5297L29.9571 35.529Z" fill="white" fill-opacity="0.5"/>
<path d="M47.3331 34.8315H50.6619C50.7937 35.3469 50.6945 35.7559 50.2675 36.0836C49.988 36.2983 49.7519 36.5719 49.4578 36.8563C49.5729 36.8935 49.6474 36.9192 49.7226 36.9429C50.3672 37.1454 50.7291 37.5639 50.7664 38.1496C50.8143 38.8965 50.4936 39.5317 49.9022 39.8012C49.1099 40.1628 47.7136 40.0606 47.0204 39.0997C47.2559 38.8722 47.4934 38.6419 47.6783 38.4632C48.0808 38.6474 48.4327 38.8566 48.8126 38.9616C49.0048 39.0144 49.2816 38.9331 49.4605 38.8166C49.8058 38.5925 49.7665 38.0426 49.3913 37.87C49.1498 37.7589 48.8571 37.7684 48.5917 37.7068C48.4593 37.6763 48.2464 37.6323 48.2251 37.5517C48.1626 37.3167 47.959 37.0594 48.2431 36.8129C48.5864 36.5143 48.9103 36.1933 49.243 35.8825C49.2217 35.8459 49.2004 35.8094 49.1791 35.7728H47.3324V34.8315H47.3331Z" fill="white" fill-opacity="0.5"/>
<path d="M40.6596 39.8851H39.5973V35.925C39.2886 35.9907 39.0211 36.0476 38.7151 36.1126C38.642 35.8106 38.5728 35.5228 38.4956 35.2025C39.2267 35.019 39.8806 34.6377 40.6603 34.7867V39.8851H40.6596Z" fill="white" fill-opacity="0.5"/>
<path d="M16.8732 34.8267H17.9436V39.8776H16.8732V34.8267Z" fill="white" fill-opacity="0.5"/>
</svg>
