<svg width="165" height="40" viewBox="0 0 165 40" fill="none" xmlns="http://www.w3.org/2000/svg">
<path d="M53.2058 13.501H55.9683V24.5695L64.4159 13.501H67.1461V29.0045H64.3836V17.9662L55.9681 29.0045H53.2056V13.501H53.2058Z" fill="#868686"/>
<path d="M76.6392 20.0003C76.6392 15.5353 80.1406 12.0005 84.9905 12.0005C89.8089 12.0005 93.3104 15.5353 93.3104 20.0003C93.3104 24.4653 89.8089 28.0002 84.9905 28.0002C80.1406 28.0002 76.6392 24.4653 76.6392 20.0003ZM90.4514 20.0003C90.4514 16.9315 88.2672 14.5123 84.9905 14.5123C81.7141 14.5123 79.4981 16.9315 79.4981 20.0003C79.4981 23.069 81.7144 25.4883 84.9905 25.4883C88.2666 25.4883 90.4514 23.0708 90.4514 20.0003Z" fill="#868686"/>
<path d="M100.058 12.2456H103.174L108.538 22.7254L113.935 12.2456H117.05L108.538 27.9965L100.058 12.2456Z" fill="#868686"/>
<path d="M125.748 12.2466H128.478V25.176H136.926V12.2466H139.656V27.7501H125.748V12.2466H125.748Z" fill="#868686"/>
<path d="M159.302 21.1768H148.51L156.122 12.2466H159.43L153.841 18.7894H164.634L157.086 27.7501H153.777L159.302 21.1768Z" fill="#868686"/>
<path d="M34.2591 31.8013L29.1186 34.1764L23.5585 25.8707L21.6523 37.6256L16.5122 40.0005L19.9529 18.7817L25.093 16.4067L30.6532 24.7123L32.5595 12.9575L37.6999 10.5825L34.2591 31.8013Z" fill="#474747"/>
<path d="M30.1865 29.1538L25.0461 31.5287L19.4858 23.2229L17.5796 34.9782L12.4392 37.3527L15.8802 16.1339L21.0203 13.7592L26.5806 22.0648L28.4869 10.3097L33.6271 7.93506L30.1865 29.1538Z" fill="#737373"/>
<path d="M26.1036 26.5074L20.9635 28.8822L15.4032 20.5768L13.4971 32.3315L8.35669 34.7063L11.7977 13.4875L16.9378 11.1127L22.4981 19.4184L24.4043 7.66328L29.5446 5.28857L26.1036 26.5074Z" fill="#828282"/>
<path d="M22.0201 23.8668L16.8801 26.2415L11.3198 17.9358L9.41359 29.6908L4.27319 32.0656L7.71391 10.8468L12.8543 8.47212L18.4146 16.7777L20.3208 5.02263L25.4609 2.64795L22.0201 23.8668Z" fill="#CBCBCB"/>
<path d="M21.6588 37.6239L20.0478 28.2956L12.787 23.5932L7.22698 15.2876L5.3208 27.0428L21.6588 37.6239Z" fill="#828282"/>
<path d="M22.8774 30.1255L20.0505 28.2949L21.6615 37.6216L22.8774 30.1255Z" fill="#D4D4D4"/>
<path d="M34.2692 31.7996L17.931 21.2183L12.7906 23.5929L14.4016 32.9216L5.32446 27.0425L0.184082 29.4171L16.5224 39.9987L21.6624 37.6239L20.0515 28.2956L29.1288 34.1746L34.2692 31.7996Z" fill="#4C4C4C"/>
<path d="M12.7858 23.5932L14.3968 32.9219L12.7858 31.8782L7.22583 15.2876L12.7858 23.5932Z" fill="#D4D4D4"/>
<path d="M16.9285 11.113L8.75952 5.82324L14.3198 14.1274L16.9285 11.113Z" fill="#CBCBCB"/>
<path d="M17.9313 21.2188L21.372 0L16.2319 2.37468L14.3257 14.1298L8.76542 5.82417L3.62505 8.19885L0.184326 29.4177L5.3247 27.0429L7.2309 15.2879L12.7909 23.5935L17.9313 21.2188Z" fill="white"/>
</svg>
