<svg width="178" height="40" viewBox="0 0 178 40" fill="none" xmlns="http://www.w3.org/2000/svg">
<path d="M120.672 15.3257H116.229L111.796 19.1237V24.0835L116.576 28.0938H121.413L113.509 21.4696L120.672 15.3257Z" fill="white" fill-opacity="0.5"/>
<path d="M72.2655 15.3252H68.0532L62.7068 28.0933H67.2663L71.3744 18.2743L72.6011 15.3252H72.2655Z" fill="white" fill-opacity="0.5"/>
<path d="M60.9351 15.3257H56.3756L61.5137 27.58L63.7819 22.1398L60.9351 15.3257Z" fill="white" fill-opacity="0.5"/>
<path d="M78.3514 23.0107L79.7864 19.6036L77.9927 15.3252H77.5992L72.2528 28.0933H76.2221L77.414 25.256H82.1471L81.2098 23.0107H78.3514Z" fill="white" fill-opacity="0.5"/>
<path d="M110.441 15.3262H106.645V28.0943H110.441V15.3262Z" fill="white" fill-opacity="0.5"/>
<path d="M101.258 25.5898H96.988V28.0908H104.163C103.781 26.7845 102.647 25.8131 101.27 25.5898" fill="white" fill-opacity="0.5"/>
<path d="M95.6144 15.3252H91.8187V28.0933H95.6144V15.3252Z" fill="white" fill-opacity="0.5"/>
<path d="M79.3768 15.3252L84.7232 28.0933H89.2711L83.9247 15.3252H79.3768Z" fill="white" fill-opacity="0.5"/>
<path d="M131.659 19.1906L134.055 22.2285L139.482 15.3262H134.703L131.659 19.1906Z" fill="white" fill-opacity="0.5"/>
<path d="M123.115 15.3252L129.398 23.3234V28.0933H133.206V23.3234L126.91 15.3252H123.115Z" fill="white" fill-opacity="0.5"/>
<path d="M162.266 15.3252H158.471V28.0933H162.266V15.3252Z" fill="white" fill-opacity="0.5"/>
<path d="M177.102 15.3252H165.634V17.8261H174.198C175.586 17.6028 176.709 16.6315 177.091 15.3252" fill="white" fill-opacity="0.5"/>
<path d="M165.651 21.7134V22.8969H167.132H174.226C175.615 22.6736 176.737 21.7023 177.119 20.396H165.651V21.7134Z" fill="white" fill-opacity="0.5"/>
<path d="M174.215 25.5903H170.153H169.331H165.651V28.0912H177.119C176.737 26.785 175.603 25.8136 174.226 25.5903" fill="white" fill-opacity="0.5"/>
<path d="M154.089 21.8266V15.3252H141.278V28.0933H145.074V17.8274H150.293V21.268H146.428V23.7703H147.979C149.008 25.2113 150.038 26.6523 151.068 28.0933H155.35C154.32 26.6523 153.29 25.2113 152.26 23.7703C153.29 23.6586 154.066 22.8319 154.089 21.8377" fill="white" fill-opacity="0.5"/>
<path d="M60.0024 0C59.9213 0.0223414 59.8519 0.0558536 59.7825 0.0893658C59.6089 0.167561 59.47 0.279268 59.3427 0.413317C53.6029 6.81414 46.9951 12.433 39.7046 17.1359C38.7325 19.7387 37.7604 22.3526 36.7999 24.9554L38.0266 26.7539C36.9041 29.77 35.7816 32.7861 34.6591 35.8022C35.4807 36.4054 36.1403 37.1873 36.5916 38.0922C38.1423 36.8075 39.7856 35.6793 41.5561 34.6739C42.7249 32.585 43.8243 30.4737 44.8542 28.3178C43.616 28.597 42.3778 28.8316 41.128 29.0104C41.0238 29.0215 40.9312 28.9769 40.8734 28.8987C40.8155 28.8205 40.8271 28.7088 40.8734 28.6306C41.1164 28.2954 41.4404 28.0385 41.8107 27.8598C42.3199 27.6475 42.8291 27.4688 43.3614 27.3459C44.4724 27.0555 45.5717 26.7204 46.6595 26.3406C47.296 25.2011 47.9209 24.0617 48.5458 22.9223C47.1224 23.5144 45.6874 23.95 44.1715 24.2628C43.859 24.3298 43.6276 23.9835 43.8127 23.7266C44.0673 23.3915 44.4145 23.1122 44.808 22.9447C46.6017 22.1515 48.3144 21.2467 49.9808 20.2302C50.8718 18.5769 51.7397 16.9013 52.5961 15.2369C50.1428 17.404 47.377 19.236 44.4029 20.677C44.0905 20.8222 43.7664 20.4983 43.94 20.2078C44.1946 19.761 44.5186 19.4035 44.9237 19.0796C48.7888 16.6444 52.2026 13.6059 55.0263 10.0872L55.061 10.0425C56.8663 6.78063 58.498 3.45175 59.9676 0.0335122C59.9676 0.0223414 59.9676 0.0111707 59.9792 0" fill="white" fill-opacity="0.5"/>
<path d="M30.3398 23.959C29.3561 26.3272 27.0417 27.9358 24.3916 28.081C25.5488 31.1864 26.7061 34.2919 27.8633 37.3974C28.4535 38.4586 29.2982 39.3522 30.3398 40.0001C31.3813 39.3522 32.2376 38.4474 32.8162 37.3974C33.9735 34.2919 35.1307 31.1864 36.2879 28.081C33.6494 27.9358 31.3234 26.3272 30.3398 23.959Z" fill="white" fill-opacity="0.5"/>
<path d="M23.8823 24.9554C22.9681 22.509 22.0655 20.0626 21.1513 17.6162C21.0934 17.4598 21.0356 17.3034 20.9777 17.1359C13.8029 12.2766 7.21825 6.66892 1.32796 0.413317C1.1428 0.212244 0.934497 0.0893658 0.668335 0C2.13801 3.42941 3.76971 6.76946 5.58656 10.0425L5.62127 10.0872C8.45648 13.6059 11.8703 16.6444 15.7239 19.0796C16.1289 19.4035 16.4529 19.761 16.7075 20.2078C16.8811 20.4983 16.5571 20.8222 16.2446 20.677C13.2706 19.236 10.5048 17.404 8.05145 15.2369C8.66478 16.4321 9.27811 17.6162 9.91459 18.8003C10.1692 19.2807 10.4238 19.7498 10.6784 20.2302C11.2338 20.5765 11.8009 20.9004 12.3795 21.2244C13.5367 21.8611 14.7287 22.4531 15.9437 22.9893C16.1173 23.0675 16.2678 23.1569 16.4066 23.2686C16.5802 23.4027 16.7307 23.5479 16.858 23.7266C17.0431 23.9835 16.8117 24.3187 16.4992 24.2628C14.9832 23.95 13.5483 23.5144 12.1249 22.9223C12.7498 24.0617 13.3747 25.2011 14.0112 26.3406C15.099 26.7204 16.1868 27.0667 17.3093 27.3459C17.8416 27.4688 18.3624 27.6364 18.86 27.8598C19.2418 28.0385 19.5659 28.2954 19.7973 28.6306C19.8552 28.7088 19.8552 28.8205 19.7973 28.8987C19.7395 28.9769 19.6469 29.0215 19.5427 29.0104C18.2929 28.8316 17.0547 28.597 15.8165 28.3178C16.8464 30.4737 17.9458 32.585 19.1146 34.6739C20.8851 35.6793 22.5168 36.8075 24.0791 38.0922C24.5304 37.1985 25.19 36.4165 26.0116 35.8022C24.8891 32.7861 23.7666 29.77 22.6441 26.7539C23.0491 26.1507 23.4657 25.5474 23.8708 24.9554" fill="white" fill-opacity="0.5"/>
</svg>
