<svg width="224" height="40" viewBox="0 0 224 40" fill="none" xmlns="http://www.w3.org/2000/svg">
<path d="M154.757 39.9489H153.243C150.942 39.9489 148.094 39.0744 147.522 36.5692C146.793 38.9058 142.052 39.9999 138.568 39.9999C124.306 39.9999 112.672 32.8771 112.091 23.958C112.038 23.1582 112.077 22.352 112.204 21.5604C113.549 13.1122 124.841 6.5123 138.569 6.5123C144.432 6.5123 149.849 7.71567 154.238 9.75256C165.745 15.099 153.056 21.2698 146.736 17.4128C144.59 16.1037 141.721 15.303 138.569 15.303C132.376 15.303 127.274 18.3948 126.605 22.3665L126.603 22.3693L126.601 22.3839L126.583 22.5041L126.582 22.5178L126.578 22.546V22.5478L126.574 22.5624L126.573 22.5779L126.57 22.5943L126.569 22.5988L126.563 22.6553L126.562 22.6699L126.56 22.6854L126.558 22.7V22.7027L126.546 22.8202L126.544 22.8339V22.8357L126.543 22.8667L126.542 22.8821C126.538 22.9368 126.534 22.9915 126.533 23.0461L126.532 23.0561C126.528 23.1245 126.528 23.1901 126.528 23.2611H126.527C126.527 27.436 131.399 30.8603 137.593 31.1873C142.283 31.4333 147.451 30.4804 151.522 28.2185C152.568 27.6346 154.127 26.1898 155.414 26.1898H158.592C159.824 26.2226 161.036 26.8084 161.036 28.3725C161.036 30.2472 161.105 32.111 161.162 33.9849C161.162 37.6305 158.223 39.9507 154.757 39.9489ZM107.537 22.8375C107.537 13.5904 95.6707 6.09326 81.0368 6.09326C66.4037 6.09326 54.5358 13.5904 54.5358 22.8375C54.5358 32.0828 66.4037 39.5799 81.0368 39.5799C95.6707 39.5799 107.537 32.0837 107.537 22.8375ZM68.9961 22.8375C68.9961 18.4431 74.3865 14.884 81.0368 14.884C87.6842 14.884 93.0784 18.4431 93.0784 22.8375C93.0784 27.2283 87.6842 30.7892 81.0368 30.7892C74.3865 30.7892 68.9961 27.2292 68.9961 22.8375ZM186.157 9.07481L167.863 26.7346L167.546 27.0425C164.803 29.6897 164.801 33.9867 167.546 36.6348C170.291 39.283 174.741 39.283 177.485 36.6348L177.801 36.3324L191.235 23.365L204.664 36.3297L204.981 36.6348C207.726 39.2857 212.176 39.283 214.921 36.6348C217.667 33.9867 217.667 29.6906 214.923 27.0434L214.604 26.7373L196.311 9.07481C193.517 6.37839 188.952 6.37748 186.157 9.07481ZM31.4576 36.5984L49.754 18.9395L50.0692 18.6335C52.8135 15.9862 52.8144 11.6893 50.0711 9.0402C47.3249 6.39023 42.8735 6.39023 40.1302 9.03929L39.8159 9.34172L26.3814 22.3101L12.9487 9.34355L12.6336 9.0402C9.88738 6.38841 5.43878 6.39023 2.69261 9.0402C-0.0516753 11.6893 -0.0516753 15.9844 2.69166 18.6307L3.00875 18.9377L21.3033 36.5984C24.0986 39.2975 28.6623 39.2975 31.4576 36.5984Z" fill="white" fill-opacity="0.5"/>
<path d="M214.044 5.85914L211.055 8.74453L210.976 8.82104C210.289 9.48501 210.289 10.5579 210.976 11.2237C211.664 11.8859 212.779 11.8859 213.466 11.2237L213.542 11.1463L216.906 7.90114H216.907L220.269 11.1463L220.348 11.2237C221.035 11.8859 222.149 11.8859 222.836 11.2237C223.523 10.5588 223.523 9.48501 222.836 8.82104L222.758 8.74453L219.768 5.85914L222.758 2.97374L222.836 2.89815C223.523 2.23509 223.523 1.16035 222.836 0.497293C222.149 -0.165764 221.035 -0.165764 220.348 0.497293L220.269 0.5738L216.906 3.81714L213.543 0.5738L213.465 0.497293C212.778 -0.165764 211.664 -0.165764 210.976 0.497293C210.288 1.16035 210.288 2.236 210.975 2.89815L211.054 2.97374L214.044 5.85914Z" fill="white" fill-opacity="0.5"/>
<path d="M215.641 4.32338L214.051 5.85843L215.641 7.39349C216.341 8.06724 217.483 8.06724 218.183 7.39349L219.773 5.85843L218.183 4.32338C217.483 3.64872 216.341 3.64872 215.641 4.32338Z" fill="#262626"/>
</svg>
