<svg width="230" height="40" viewBox="0 0 230 40" fill="none" xmlns="http://www.w3.org/2000/svg">
<path d="M113.486 9.3152C111.221 9.31966 109.004 9.94247 107.09 11.1117V2.8744C107.09 2.11207 106.776 1.38095 106.218 0.841894C105.659 0.302838 104.902 0 104.112 0C103.322 0 102.565 0.302838 102.006 0.841894C101.448 1.38095 101.134 2.11207 101.134 2.8744V21.5847C100.972 23.2451 101.17 24.9201 101.717 26.5023C102.263 28.0845 103.146 29.5391 104.309 30.7727C105.472 32.0064 106.889 32.992 108.469 33.6664C110.05 34.3409 111.758 34.6893 113.486 34.6893C115.214 34.6893 116.923 34.3409 118.503 33.6664C120.084 32.992 121.501 32.0064 122.663 30.7727C123.826 29.5391 124.709 28.0845 125.256 26.5023C125.803 24.9201 126.001 23.2451 125.838 21.5847C125.875 18.3795 124.597 15.2903 122.283 12.9916C119.969 10.6929 116.806 9.37124 113.486 9.3152ZM113.486 28.1851C111.738 28.1295 110.084 27.4082 108.886 26.1789C107.687 24.9495 107.041 23.3121 107.09 21.6246C107.032 20.7796 107.155 19.9323 107.45 19.1349C107.746 18.3376 108.208 17.6073 108.807 16.9893C109.407 16.3712 110.132 15.8785 110.936 15.5416C111.741 15.2048 112.609 15.031 113.486 15.031C114.364 15.031 115.231 15.2048 116.036 15.5416C116.841 15.8785 117.566 16.3712 118.165 16.9893C118.765 17.6073 119.227 18.3376 119.522 19.1349C119.818 19.9323 119.94 20.7796 119.883 21.6246C119.92 23.3053 119.27 24.9324 118.072 26.1531C116.875 27.3738 115.227 28.0896 113.486 28.1452V28.1851Z" fill="white" fill-opacity="0.5"/>
<path d="M82.8223 9.54297C81.17 9.56379 79.5382 9.89882 78.0202 10.5289C76.5021 11.159 75.1276 12.0717 73.9753 13.2149C72.823 14.3582 71.9154 15.7095 71.3045 17.1916C70.6937 18.6736 70.3914 20.2574 70.4151 21.8523C70.3914 23.4473 70.6937 25.031 71.3045 26.5131C71.9154 27.9952 72.823 29.3465 73.9753 30.4897C75.1276 31.633 76.5021 32.5457 78.0202 33.1758C79.5382 33.8059 81.17 34.1409 82.8223 34.1617C85.1785 34.1593 87.4811 33.4833 89.4395 32.2188C89.7009 32.8373 90.1772 33.3487 90.7867 33.665C91.3962 33.9813 92.1008 34.0828 92.7794 33.9522C93.458 33.8215 94.0683 33.4667 94.5053 32.9488C94.9424 32.4309 95.179 31.7823 95.1744 31.1143V21.7991C95.2077 18.5962 93.9279 15.5105 91.6141 13.2146C89.3002 10.9188 86.14 9.599 82.8223 9.54297ZM82.8223 28.4129C81.0817 28.347 79.4382 27.6212 78.2484 26.393C77.0586 25.1648 76.4186 23.5332 76.4671 21.8523C76.4096 21.0074 76.5323 20.16 76.8278 19.3627C77.1232 18.5654 77.585 17.8351 78.1847 17.217C78.7843 16.5989 79.5089 16.1062 80.3137 15.7694C81.1186 15.4326 81.9865 15.2588 82.8637 15.2588C83.7409 15.2588 84.6088 15.4326 85.4136 15.7694C86.2185 16.1062 86.9431 16.5989 87.5427 17.217C88.1423 17.8351 88.6042 18.5654 88.8996 19.3627C89.195 20.16 89.3178 21.0074 89.2603 21.8523C89.2842 22.6912 89.1365 23.5265 88.8258 24.3103C88.5152 25.0941 88.0475 25.8111 87.4496 26.4204C86.8517 27.0296 86.1353 27.5192 85.3414 27.8611C84.5474 28.203 83.6914 28.3905 82.8223 28.4129Z" fill="white" fill-opacity="0.5"/>
<path d="M24.6634 14.173C24.6634 14.0799 24.815 14 24.8702 13.9069C24.9214 13.8299 24.9674 13.7499 25.008 13.6673C25.055 13.5857 25.0964 13.5013 25.1321 13.4145C25.1705 13.3234 25.2027 13.2301 25.2286 13.135C25.2581 13.048 25.2811 12.9591 25.2975 12.8689C25.3051 12.7581 25.3051 12.647 25.2975 12.5362C25.2975 12.4697 25.2975 12.4164 25.2975 12.3499C25.3111 12.2305 25.3111 12.11 25.2975 11.9906C25.3034 11.9197 25.3034 11.8485 25.2975 11.7777C25.2975 11.6845 25.2975 11.5914 25.2148 11.4849L25.1321 11.2454L25.008 11.0325C24.9611 10.9392 24.9058 10.8501 24.8426 10.7663C24.8086 10.7044 24.7617 10.6501 24.7048 10.6066C24.6378 10.5052 24.5592 10.4115 24.4704 10.3272L24.305 10.2074C24.2238 10.1336 24.1362 10.0668 24.043 10.0078L23.7811 9.8614L23.533 9.74163L23.2159 9.64848H22.9677C22.844 9.6354 22.7192 9.6354 22.5955 9.64848H22.4163H3.62627C2.86975 9.69814 2.16099 10.0233 1.64332 10.5581C1.12566 11.0929 0.837707 11.7976 0.837707 12.5295C0.837707 13.2615 1.12566 13.9661 1.64332 14.501C2.16099 15.0358 2.86975 15.3609 3.62627 15.4106H15.4269L1.47568 29.3701C1.43057 29.4111 1.38907 29.4556 1.35161 29.5032C1.26595 29.5949 1.18761 29.6928 1.11725 29.7959L0.993177 30.0355C0.993177 30.1286 0.896677 30.2085 0.855319 30.3016C0.820206 30.4016 0.792564 30.5039 0.772604 30.6077C0.76636 30.6919 0.76636 30.7764 0.772604 30.8605C0.765828 30.9846 0.765828 31.109 0.772604 31.2331C0.772604 31.2331 0.772604 31.3529 0.772604 31.4194H0.648532C0.63506 31.5611 0.63506 31.7036 0.648532 31.8453C0.641738 31.8894 0.641738 31.9342 0.648532 31.9784C0.731967 32.334 0.881427 32.6722 1.08968 32.9764L1.17239 33.0563C1.26599 33.1775 1.36728 33.2931 1.47568 33.4022L1.64111 33.5353L1.90304 33.7349L2.17876 33.868L2.41311 33.9878L2.74397 34.0809L2.96455 34.1475C3.15268 34.1612 3.34163 34.1612 3.52976 34.1475L22.2785 33.8946C23.0682 33.884 23.8212 33.571 24.3719 33.0245C24.9226 32.478 25.2258 31.7426 25.2148 30.9803C25.2039 30.218 24.8796 29.491 24.3134 28.9595C23.7472 28.4279 22.9855 28.1352 22.1957 28.1458L10.533 28.2922L24.5393 14.3327L24.6634 14.173Z" fill="white" fill-opacity="0.5"/>
<path d="M34.294 9.4624C33.5006 9.4624 32.7397 9.76664 32.1787 10.3082C31.6177 10.8497 31.3025 11.5842 31.3025 12.3501V31.3531C31.3539 32.0834 31.6907 32.7676 32.2448 33.2673C32.7989 33.767 33.5289 34.0449 34.2871 34.0449C35.0454 34.0449 35.7754 33.767 36.3294 33.2673C36.8835 32.7676 37.2203 32.0834 37.2717 31.3531V12.3501C37.2717 11.5865 36.9585 10.8541 36.4004 10.3129C35.8424 9.77171 35.085 9.46592 34.294 9.4624Z" fill="white" fill-opacity="0.5"/>
<path d="M65.4441 9.88623C64.7345 9.55602 63.9184 9.51066 63.1742 9.76007C62.4301 10.0095 61.8187 10.5333 61.4738 11.217L54.7325 24.6841L48.0464 11.1105C47.8781 10.7697 47.6418 10.4643 47.3512 10.2117C47.0605 9.95904 46.7212 9.76413 46.3525 9.63809C45.9838 9.51205 45.593 9.45734 45.2024 9.47708C44.8119 9.49682 44.4291 9.59063 44.0761 9.75315C43.3631 10.0814 42.8145 10.6696 42.5508 11.3883C42.4202 11.7442 42.3635 12.1214 42.384 12.4984C42.4044 12.8755 42.5016 13.2449 42.67 13.5857L52.0443 32.5887C52.2828 33.0787 52.6611 33.4929 53.1347 33.7829C53.6084 34.0728 54.1579 34.2263 54.7187 34.2255C55.2926 34.2367 55.8576 34.0884 56.3465 33.7982C56.8353 33.5079 57.2274 33.0881 57.4759 32.5887L66.8227 13.7188C67.1648 13.0338 67.2118 12.246 66.9534 11.5277C66.695 10.8094 66.1523 10.2191 65.4441 9.88623Z" fill="white" fill-opacity="0.5"/>
<path d="M226.275 28.265C225.419 28.2755 224.569 28.1231 223.774 27.8165C222.978 27.5099 222.253 27.0551 221.64 26.478C221.027 25.9009 220.538 25.2128 220.2 24.4532C219.862 23.6935 219.683 22.877 219.672 22.0504V12.2694C219.672 11.5071 219.358 10.776 218.8 10.2369C218.241 9.69786 217.484 9.39502 216.694 9.39502C215.905 9.39502 215.147 9.69786 214.589 10.2369C214.03 10.776 213.717 11.5071 213.717 12.2694V22.0504C213.736 23.6232 214.077 25.1769 214.719 26.6227C215.361 28.0684 216.291 29.378 217.457 30.4766C218.624 31.5751 220.003 32.4412 221.516 33.0253C223.029 33.6094 224.646 33.9 226.275 33.8807C227.047 33.8807 227.787 33.5849 228.332 33.0583C228.878 32.5317 229.184 31.8175 229.184 31.0728C229.184 30.3281 228.878 29.6139 228.332 29.0874C227.787 28.5608 227.047 28.265 226.275 28.265Z" fill="white" fill-opacity="0.5"/>
<path d="M206.132 9.67407C205.422 9.34745 204.608 9.30397 203.864 9.55304C203.121 9.8021 202.51 10.3237 202.162 11.0048L195.476 24.5252L191.933 17.3525C191.937 17.3171 191.937 17.2814 191.933 17.246L191.768 16.9798C191.72 16.9037 191.665 16.8324 191.602 16.7669L191.409 16.554L191.189 16.3677L190.885 16.2346L190.61 16.0882L190.499 16.0217H190.375L190.072 15.9152H189.81H189.507H188.942H188.652H188.39L188.128 15.9685H188.004H187.894L187.618 16.1415L187.398 16.2879C187.329 16.2879 187.246 16.4076 187.177 16.4875L186.984 16.6871L186.819 16.9L186.653 17.1661L186.584 17.2726L183.041 24.432L176.3 10.9915C175.95 10.3128 175.338 9.79351 174.596 9.54478C173.854 9.29606 173.04 9.33769 172.33 9.66076C171.98 9.82163 171.668 10.0475 171.409 10.3255C171.151 10.6034 170.952 10.928 170.824 11.2804C170.695 11.6329 170.641 12.0063 170.663 12.3792C170.685 12.7521 170.783 13.1172 170.951 13.4534L180.188 32.0838C180.419 32.7697 180.912 33.3452 181.566 33.694C181.987 33.9246 182.461 34.0482 182.945 34.0533C183.447 34.0526 183.941 33.9305 184.382 33.698C184.822 33.4655 185.196 33.1302 185.468 32.7225C185.578 32.5688 185.671 32.4036 185.743 32.2302L189.245 25.2837L192.636 32.137C192.828 32.6993 193.197 33.1898 193.691 33.5404C194.185 33.891 194.78 34.0842 195.393 34.0932C195.897 34.0923 196.393 33.9702 196.836 33.7379C197.279 33.5055 197.655 33.1703 197.93 32.7625C198.026 32.6143 198.109 32.4585 198.178 32.2967L207.483 13.48C207.657 13.1451 207.76 12.7801 207.786 12.4065C207.811 12.0328 207.76 11.658 207.634 11.3037C207.509 10.9495 207.311 10.6229 207.053 10.3431C206.795 10.0633 206.482 9.83589 206.132 9.67407Z" fill="white" fill-opacity="0.5"/>
<path d="M165.801 17.6305C165.525 14.4848 164.547 11.4342 162.934 8.68791C162.004 6.93468 160.522 5.51107 158.702 4.62162C156.881 3.73217 154.815 3.42266 152.801 3.73755C150.429 4.07691 148.018 4.07691 145.646 3.73755C143.655 3.35894 141.59 3.59626 139.746 4.41574C137.902 5.23522 136.373 6.59513 135.376 8.302C133.453 11.281 132.347 14.6838 132.164 18.1894C132.067 23.8185 133.308 27.1187 135.486 30.1661C138.59 34.4728 142.932 37.8082 147.976 39.7608C148.311 39.9184 148.679 40.0003 149.052 40.0003C149.424 40.0003 149.792 39.9184 150.127 39.7608C153.541 38.355 156.665 36.3671 159.35 33.8922C161.871 31.5865 163.797 28.7425 164.974 25.5883C165.871 23.0305 166.154 20.3094 165.801 17.6305ZM161.941 21.9155C161.376 22.5143 160.811 23.1132 160.273 23.7386C160.156 23.8819 160.097 24.0619 160.108 24.2443C160.108 25.1226 160.315 26.0009 160.37 26.9058C160.423 27.1124 160.428 27.3278 160.385 27.5366C160.341 27.7453 160.25 27.9421 160.118 28.1128C159.986 28.2834 159.817 28.4236 159.622 28.5233C159.427 28.6229 159.211 28.6795 158.991 28.689L156.951 29.1015C156.589 29.1823 156.253 29.3452 155.97 29.5767C155.688 29.8082 155.466 30.1015 155.324 30.4323C155.117 30.8448 154.938 31.2839 154.718 31.763C154.567 32.1466 154.281 32.4671 153.911 32.6688C153.541 32.8706 153.109 32.9409 152.691 32.8675C152.252 32.7921 151.848 32.5903 151.53 32.2886C151.213 31.9869 150.998 31.5996 150.913 31.1775C150.823 30.4577 150.782 29.7332 150.789 29.0084C150.795 28.9286 150.795 28.8485 150.789 28.7688C150.75 28.3448 150.548 27.9502 150.222 27.6627C149.897 27.3753 149.472 27.2159 149.031 27.2159C148.59 27.2159 148.165 27.3753 147.839 27.6627C147.514 27.9502 147.312 28.3448 147.273 28.7688C147.266 28.8752 147.266 28.9818 147.273 29.0882C147.273 29.5407 147.273 29.9931 147.273 30.4189C147.26 30.9506 147.06 31.4622 146.707 31.8705C146.354 32.2789 145.869 32.5599 145.329 32.6679C145.143 32.7422 144.942 32.779 144.74 32.776C144.538 32.7731 144.339 32.7305 144.154 32.6508C143.97 32.5711 143.804 32.456 143.667 32.3126C143.53 32.1691 143.425 32.0002 143.358 31.8162C143.11 31.3771 142.903 30.9113 142.669 30.4855C142.51 30.0949 142.248 29.7509 141.91 29.4873C141.571 29.2237 141.168 29.0495 140.739 28.9817C140.132 28.8886 139.539 28.7821 138.947 28.6357C137.94 28.3962 137.568 27.9837 137.678 26.9856C137.678 26.2138 137.871 25.4287 137.94 24.6568C137.962 24.374 137.916 24.09 137.806 23.827C137.696 23.5639 137.525 23.3288 137.306 23.1398C136.796 22.6341 136.286 22.1151 135.803 21.5828C135.587 21.3669 135.462 21.0813 135.452 20.7813C135.442 20.4813 135.547 20.1884 135.748 19.9593C136.045 19.54 136.397 19.1598 136.796 18.8282C137.264 18.5172 137.622 18.0742 137.819 17.5596C138.017 17.0451 138.044 16.4842 137.899 15.9538C137.801 15.5147 137.732 15.0703 137.692 14.623C137.609 13.4254 138.064 12.8798 139.305 12.6535L140.863 12.4007C141.208 12.3563 141.536 12.2296 141.818 12.0321C142.099 11.8347 142.325 11.5726 142.476 11.2696C142.751 10.7018 143.041 10.1429 143.344 9.59282C143.456 9.35097 143.624 9.1373 143.835 8.9685C144.046 8.79971 144.295 8.68037 144.562 8.61981C144.829 8.55925 145.107 8.55911 145.374 8.6194C145.641 8.67969 145.89 8.79879 146.101 8.96737C146.485 9.2028 146.8 9.52975 147.015 9.91668C147.23 10.3036 147.338 10.7375 147.328 11.1764C147.328 12.7467 147.328 14.3303 147.328 15.9005C147.301 16.3555 147.381 16.8106 147.563 17.2313C147.744 17.5574 148.037 17.8127 148.391 17.9535C148.746 18.0943 149.14 18.1118 149.506 18.0031C149.87 17.9233 150.193 17.7247 150.422 17.4409C150.65 17.157 150.77 16.8056 150.761 16.4461C150.761 15.5279 150.761 14.5964 150.761 13.6649C150.761 12.7334 150.761 11.8817 150.761 11.0034C150.735 10.481 150.895 9.96573 151.213 9.54244C151.531 9.11916 151.989 8.81309 152.512 8.67461C152.858 8.53604 153.244 8.52157 153.601 8.63383C153.957 8.74608 154.26 8.97766 154.456 9.28675C154.819 9.80117 155.129 10.3495 155.379 10.9236C155.554 11.373 155.859 11.7647 156.257 12.0524C156.655 12.34 157.13 12.5117 157.626 12.5471C158.169 12.6221 158.707 12.7243 159.239 12.8531C159.424 12.8757 159.602 12.9341 159.762 13.0248C159.923 13.1155 160.062 13.2366 160.173 13.3808C160.284 13.525 160.363 13.6894 160.407 13.864C160.45 14.0386 160.456 14.2198 160.425 14.3968C160.425 15.142 160.259 15.8739 160.135 16.6191C160.089 16.9116 160.117 17.2105 160.215 17.4906C160.313 17.7708 160.48 18.0241 160.701 18.2293L161.955 19.4935C162.137 19.6432 162.283 19.8293 162.382 20.039C162.482 20.2488 162.533 20.4769 162.532 20.7076C162.53 20.9383 162.477 21.1659 162.375 21.3746C162.273 21.5832 162.125 21.7678 161.941 21.9155Z" fill="white" fill-opacity="0.5"/>
</svg>
